<?xml version="1.0" ?><svg data-name="Layer 1" id="Layer_1" viewBox="0 0 128 128" xmlns="http://www.w3.org/2000/svg"><defs><style>.cls-1{fill:#062b31;}</style></defs><title/><path class="cls-1" d="M96.55,14a9.92,9.92,0,0,1,10,9.89V110l-10.45-9.12L90.19,95.5,84,89.79l2.58,8.88H31.45a9.92,9.92,0,0,1-10-9.89V23.89a9.92,9.92,0,0,1,10-9.89H96.55m0-6.5H31.45A16.44,16.44,0,0,0,15,23.89v64.9a16.44,16.44,0,0,0,16.46,16.39H91.13l.55.51.06.05.06,0,10.45,9.12L113,124.3V23.89A16.44,16.44,0,0,0,96.55,7.5Z"/><path class="cls-1" d="M74.3,73.11C75.76,74.94,77.51,77,77.51,77c10.74-.34,14.87-7.3,14.87-7.3a63.69,63.69,0,0,0-7-28,24.23,24.23,0,0,0-13.65-5l-.68.77c8.26,2.5,12.1,6.1,12.1,6.1a40,40,0,0,0-14.62-4.61,41.61,41.61,0,0,0-9.81.1,4.84,4.84,0,0,0-.83.1,36.84,36.84,0,0,0-11,3C45.05,43,44,43.55,44,43.55s4-3.79,12.78-6.29l-.49-.58a24.23,24.23,0,0,0-13.65,5,63.69,63.69,0,0,0-7,28s4.08,7,14.82,7.3c0,0,1.8-2.16,3.26-4-6.17-1.82-8.5-5.66-8.5-5.66s.49.34,1.36.82a.67.67,0,0,0,.19.14c.15.1.29.14.44.24a28.64,28.64,0,0,0,3.55,1.63,41.16,41.16,0,0,0,7.14,2.06,34.45,34.45,0,0,0,12.58,0,32.28,32.28,0,0,0,7-2.06,27.93,27.93,0,0,0,5.59-2.83S80.67,71.34,74.3,73.11Zm-18-6.69c-2.7,0-4.92-2.47-4.92-5.49a4.95,4.95,0,1,1,9.83,0A5.21,5.21,0,0,1,56.28,66.43Zm17.59,0C71.18,66.43,69,64,69,60.94a4.95,4.95,0,1,1,4.92,5.49Z"/></svg>